HIERARCHY
ROOT Lex4_Hips
{
  OFFSET -0.563458 94.7827 2.4889
  CHANNELS 6 Xposition Yposition Zposition Zrotation Xrotation Yrotation
  JOINT Lex4_LeftUpLeg
  {
    OFFSET 11.2507 0 0
    CHANNELS 6 Xposition Yposition Zposition Zrotation Xrotation Yrotation
    JOINT Lex4_LeftLeg
    {
      OFFSET 0 -48.2125 0
      CHANNELS 6 Xposition Yposition Zposition Zrotation Xrotation Yrotation
      JOINT Lex4_LeftFoot
      {
        OFFSET 0 -41.8358 0
        CHANNELS 6 Xposition Yposition Zposition Zrotation Xrotation Yrotation
        JOINT Lex4_LeftToeBase
        {
          OFFSET 0 0 13.7184
          CHANNELS 6 Xposition Yposition Zposition Zrotation Xrotation Yrotation
          JOINT Lex4_LeftToeEnd
          {
            OFFSET 0 0 7.5
            CHANNELS 6 Xposition Yposition Zposition Zrotation Xrotation Yrotation
            End Site
            {
              OFFSET 0 0 0
            }
          }
        }
      }
    }
  }
  JOINT Lex4_RightUpLeg
  {
    OFFSET -11.2507 0 0
    CHANNELS 6 Xposition Yposition Zposition Zrotation Xrotation Yrotation
    JOINT Lex4_RightLeg
    {
      OFFSET 0 -48.2125 0
      CHANNELS 6 Xposition Yposition Zposition Zrotation Xrotation Yrotation
      JOINT Lex4_RightFoot
      {
        OFFSET 0 -41.8358 0
        CHANNELS 6 Xposition Yposition Zposition Zrotation Xrotation Yrotation
        JOINT Lex4_RightToeBase
        {
          OFFSET 0 0 13.7184
          CHANNELS 6 Xposition Yposition Zposition Zrotation Xrotation Yrotation
          JOINT Lex4_RightToeEnd
          {
            OFFSET 0 0 7.5
            CHANNELS 6 Xposition Yposition Zposition Zrotation Xrotation Yrotation
            End Site
            {
              OFFSET 0 0 0
            }
          }
        }
      }
    }
  }
  JOINT Lex4_Spine
  {
    OFFSET 0 14.1428 0
    CHANNELS 6 Xposition Yposition Zposition Zrotation Xrotation Yrotation
    JOINT Lex4_Head
    {
      OFFSET 0 48.2444 0
      CHANNELS 6 Xposition Yposition Zposition Zrotation Xrotation Yrotation
      End Site
      {
        OFFSET 0 11.5 0
      }
    }
    JOINT Lex4_LabelingCluster_1
    {
      OFFSET 6.91668 29.7232 -14.2315
      CHANNELS 6 Xposition Yposition Zposition Zrotation Xrotation Yrotation
      End Site
      {
        OFFSET 0 0 0
      }
    }
    JOINT Lex4_LeftShoulder
    {
      OFFSET 0 33.7901 0
      CHANNELS 6 Xposition Yposition Zposition Zrotation Xrotation Yrotation
      JOINT Lex4_LeftArm
      {
        OFFSET 0 19.8458 0
        CHANNELS 6 Xposition Yposition Zposition Zrotation Xrotation Yrotation
        JOINT Lex4_LeftForeArm
        {
          OFFSET 0 31.3007 0
          CHANNELS 6 Xposition Yposition Zposition Zrotation Xrotation Yrotation
          JOINT Lex4_LeftHand
          {
            OFFSET 0 25.4109 0
            CHANNELS 6 Xposition Yposition Zposition Zrotation Xrotation Yrotation
            JOINT Lex4_LeftHandEnd
            {
              OFFSET 0 10 0
              CHANNELS 6 Xposition Yposition Zposition Zrotation Xrotation Yrotation
              End Site
              {
                OFFSET 0 0 0
              }
            }
            JOINT Lex4_LeftHandThumb1
            {
              OFFSET 0 0 0
              CHANNELS 6 Xposition Yposition Zposition Zrotation Xrotation Yrotation
              JOINT Lex4_LeftHandThumb2
              {
                OFFSET 0 0 10
                CHANNELS 6 Xposition Yposition Zposition Zrotation Xrotation Yrotation
                End Site
                {
                  OFFSET 0 0 0
                }
              }
            }
          }
        }
      }
    }
    JOINT Lex4_RightShoulder
    {
      OFFSET 0 33.7901 0
      CHANNELS 6 Xposition Yposition Zposition Zrotation Xrotation Yrotation
      JOINT Lex4_RightArm
      {
        OFFSET 0 19.8458 0
        CHANNELS 6 Xposition Yposition Zposition Zrotation Xrotation Yrotation
        JOINT Lex4_RightForeArm
        {
          OFFSET 0 31.3007 0
          CHANNELS 6 Xposition Yposition Zposition Zrotation Xrotation Yrotation
          JOINT Lex4_RightHand
          {
            OFFSET 0 25.4109 0
            CHANNELS 6 Xposition Yposition Zposition Zrotation Xrotation Yrotation
            JOINT Lex4_RightHandEnd
            {
              OFFSET 0 10 0
              CHANNELS 6 Xposition Yposition Zposition Zrotation Xrotation Yrotation
              End Site
              {
                OFFSET 0 0 0
              }
            }
            JOINT Lex4_RightHandThumb1
            {
              OFFSET 0 0 0
              CHANNELS 6 Xposition Yposition Zposition Zrotation Xrotation Yrotation
              JOINT Lex4_RightHandThumb2
              {
                OFFSET 0 0 10
                CHANNELS 6 Xposition Yposition Zposition Zrotation Xrotation Yrotation
                End Site
                {
                  OFFSET 0 0 0
                }
              }
            }
          }
        }
      }
    }
  }
}
MOTION
Frames:	5
Frame Time:	0.0416667
-2.88485 94.8432 -6.79922 0.332541 21.2753 179.928 11.2507 0 0 2.59117 30.9481 15.6436 -3.55271e-015 -48.2125 -4.44089e-016 3.97569e-016 -5.74953 -0 0 -41.8358 -2.66454e-015 -1.73015 13.2495 -0.0307594 -3.55271e-015 0 13.7184 8.82182e-016 -15.5023 3.30063e-015 0 8.88178e-016 7.5 7.95139e-016 5.96354e-016 3.18055e-015 -11.2507 1.42109e-014 7.10543e-015 -4.18567 32.8503 -9.10444 0 -48.2125 0 -1.44669e-015 -5.15914 1.59675e-015 -3.55271e-015 -41.8358 -1.77636e-015 6.00187 13.2143 -2.28322 -3.55271e-015 0 13.7184 1.82597e-015 -20.3225 -8.4792e-015 0 6.66134e-016 7.5 -4.96962e-017 -1.98785e-016 -1.59028e-015 0 14.1428 0 2.18367 22.6629 -3.37346 0 48.2444 2.22045e-016 -1.00953 2.30674 -4.04419 7.00006 29.8072 -14.8012 85.5008 -9.07179 -169.107 -8.88178e-016 33.7901 -6.66134e-016 -79.528 -13.8024 2.35231 -2.84217e-014 19.8458 -8.88178e-016 -17.6921 23.1856 -49.8772 0 31.3007 0 1.43934e-007 -3.06065 47.1049 5.68434e-014 25.4109 8.88178e-016 6.99844 -7.53737 -2.40621e-015 -2.84217e-014 10 0 3.72721e-016 3.97569e-016 -0 0 0 0 15.0933 -21.7379 36.0619 0 1.42109e-014 10 0 0 -0 -8.88178e-016 33.7901 -6.66134e-016 67.3072 -13.2459 -9.94454 0 19.8458 0 29.4659 22.221 -8.35552 0 31.3007 0 4.81811e-008 11.3379 21.4734 2.84217e-014 25.4109 0 -8.39532 -12.0022 -4.87745e-015 0 10 0 -3.97569e-016 3.97569e-016 3.18055e-015 0 0 0 -13.7831 -20.2443 -35.3345 -2.84217e-014 -1.42109e-014 10 -0 0 6.36111e-015 
-2.88556 94.843 -6.80341 0.337542 21.2815 179.914 11.2507 -1.42109e-014 0 2.58739 30.9641 15.6662 3.55271e-015 -48.2125 -8.88178e-016 -7.95139e-016 -5.76227 -0 -3.55271e-015 -41.8358 -2.88658e-015 -1.7392 13.256 -0.0301111 3.55271e-015 0 13.7184 8.72301e-017 -15.5054 3.30068e-015 0 8.88178e-016 7.5 4.47266e-016 -3.97569e-016 -0 -11.2507 0 0 -4.18454 32.8545 -9.10546 0 -48.2125 -1.77636e-015 -1.19271e-015 -5.15204 -0 0 -41.8358 -2.66454e-015 6.00641 13.2047 -2.26238 3.55271e-015 0 13.7184 -1.41452e-015 -20.3132 5.08721e-015 0 6.66134e-016 7.5 0 0 -1.59028e-015 0 14.1428 0 2.18259 22.646 -3.37305 0 48.2444 0 -1.02059 2.35926 -4.04436 6.99505 29.8088 -14.8007 85.5027 -9.07721 -169.102 8.88178e-016 33.7901 0 -79.5111 -13.8104 2.32091 0 19.8458 -2.22045e-016 -17.7456 23.1579 -49.8513 -1.42109e-014 31.3007 1.42109e-014 1.15076e-005 -3.04472 47.1633 -2.84217e-014 25.4109 1.77636e-015 7.0169 -7.56898 -3.20851e-015 0 10 0 2.48481e-016 -3.97569e-016 7.95139e-016 0 0 0 15.0933 -21.7379 36.0619 0 0 10 6.36111e-015 -6.36111e-015 -0 8.88178e-016 33.7901 0 67.3141 -13.2371 -9.9562 -2.84217e-014 19.8458 0 29.438 22.2266 -8.31248 0 31.3007 0 1.06154e-005 11.3376 21.5769 0 25.4109 0 -8.40331 -12.0159 -4.8777e-015 2.84217e-014 10 0 -9.93923e-016 1.98785e-016 -0 0 0 0 -13.7831 -20.2443 -35.3345 2.84217e-014 0 10 3.18055e-015 0 6.36111e-015 
-2.87767 94.8375 -6.82643 0.361801 21.362 179.848 11.2507 0 0 2.57387 31.051 15.6904 0 -48.2125 0 -3.18055e-015 -5.72287 -0 0 -41.8358 -2.22045e-015 -1.7453 13.2089 0.0181923 0 8.88178e-016 13.7184 -8.62153e-017 -15.4884 -3.30041e-015 0 6.66134e-016 7.5 -6.4605e-016 0 -3.18055e-015 -11.2507 1.42109e-014 7.10543e-015 -4.20982 32.9445 -9.07492 -3.55271e-015 -48.2125 1.77636e-015 -2.13155e-015 -5.16344 -1.59676e-015 -3.55271e-015 -41.8358 -2.66454e-015 6.02435 13.1783 -2.19664 0 -8.88178e-016 13.7184 -2.59293e-015 -20.2797 1.69537e-015 0 6.66134e-016 7.5 -1.98785e-016 3.97569e-016 1.59028e-015 0 14.1428 7.10543e-015 2.17334 22.6225 -3.35244 -8.88178e-016 48.2444 4.44089e-016 -1.07276 2.57679 -4.21255 6.99765 29.8117 -14.8026 85.4972 -9.03009 -168.903 0 33.7901 -4.44089e-016 -79.5121 -13.7683 2.39789 0 19.8458 6.66134e-016 -17.7501 23.0314 -49.7824 0 31.3007 0 -4.3099e-007 -3.06227 47.175 0 25.4109 -8.88178e-016 7.13414 -7.48392 -4.81182e-015 0 10 0 -7.45443e-017 0 7.95139e-016 0 0 0 15.0933 -21.7379 36.0619 -1.42109e-014 0 10 1.76556e-031 3.18055e-015 -3.18055e-015 0 33.7901 -4.44089e-016 67.29 -13.2421 -10.0293 2.84217e-014 19.8458 1.77636e-015 29.3829 22.2594 -8.24665 0 31.3007 0 -6.24091e-008 11.3707 21.5103 2.84217e-014 25.4109 0 -8.3641 -12.0535 -3.25226e-015 0 10 -7.10543e-015 5.96354e-016 -4.96962e-016 -0 0 0 0 -13.7831 -20.2443 -35.3345 0 0 10 3.18055e-015 3.18055e-015 -0 
-2.86821 94.8372 -6.83889 0.384698 21.437 179.786 11.2507 1.42109e-014 7.10543e-015 2.5801 31.1267 15.6929 3.55271e-015 -48.2125 1.33227e-015 -2.38542e-015 -5.68521 -0 0 -41.8358 -2.88658e-015 -1.71964 13.1853 0.0760283 3.55271e-015 0 13.7184 -0 -15.5239 -0 7.10543e-015 6.66134e-016 7.5 -1.04362e-015 -1.98785e-016 -0 -11.2507 -1.42109e-014 7.10543e-015 -4.21552 33.0239 -8.99761 -3.55271e-015 -48.2125 3.55271e-015 -1.19271e-015 -5.1817 -0 0 -41.8358 -3.55271e-015 6.03354 13.1895 -2.22465 3.55271e-015 0 13.7184 4.48728e-016 -20.2862 -1.01727e-014 0 6.66134e-016 7.5 -1.98785e-016 1.98785e-016 3.18055e-015 -8.88178e-016 14.1428 7.10543e-015 2.16784 22.6125 -3.33168 -8.88178e-016 48.2444 -6.66134e-016 -1.0513 2.70438 -4.3635 6.99975 29.81 -14.8097 85.5555 -9.06016 -168.916 -1.77636e-015 33.7901 2.22045e-016 -79.5307 -13.7894 2.40333 2.84217e-014 19.8458 -2.22045e-016 -17.7365 22.9886 -49.8388 -1.42109e-014 31.3007 1.42109e-014 1.79789e-005 -3.10036 47.2084 2.84217e-014 25.4109 8.88178e-016 7.11285 -7.54051 -4.81245e-015 0 10 0 3.72721e-016 -1.98785e-016 -0 0 0 0 15.0933 -21.7379 36.0619 0 0 10 -3.18055e-015 -3.18055e-015 3.18055e-015 -1.77636e-015 33.7901 2.22045e-016 67.299 -13.2579 -10.0007 0 19.8458 1.77636e-015 29.3707 22.2326 -8.26672 0 31.3007 3.55271e-015 -2.16325e-006 11.4084 21.5751 2.84217e-014 25.4109 3.55271e-015 -8.48445 -12.0406 -6.5042e-015 2.84217e-014 10 7.10543e-015 6.4605e-016 9.93923e-017 4.77083e-015 0 0 0 -13.7831 -20.2443 -35.3345 2.84217e-014 0 10 -1.59028e-015 3.18055e-015 6.36111e-015 
-2.85384 94.842 -6.84338 0.410763 21.5428 179.732 11.2507 0 0 2.59357 31.2425 15.7585 3.55271e-015 -48.2125 1.77636e-015 -1.98785e-015 -5.68727 -0 -7.10543e-015 -41.8358 -2.66454e-015 -1.70404 13.1881 0.0467356 3.55271e-015 0 13.7184 2.2971e-015 -15.5236 -3.30097e-015 0 8.88178e-016 7.5 1.49089e-016 0 -0 -11.2507 0 0 -4.20858 33.103 -9.00223 3.55271e-015 -48.2125 1.77636e-015 -3.94422e-015 -5.13881 4.79009e-015 -3.55271e-015 -41.8358 -1.77636e-015 5.99599 13.185 -2.16139 -3.55271e-015 0 13.7184 -5.87866e-016 -20.2875 -1.69546e-015 3.55271e-015 8.88178e-016 7.5 9.93923e-017 1.98785e-016 -3.18055e-015 0 14.1428 0 2.15749 22.6128 -3.33937 -8.88178e-016 48.2444 2.22045e-016 -0.990648 2.88 -4.49975 6.99798 29.8086 -14.8163 85.5196 -9.19715 -168.999 -8.88178e-016 33.7901 2.22045e-016 -79.4964 -13.7899 2.32418 2.84217e-014 19.8458 0 -17.8798 22.8704 -49.6476 0 31.3007 1.42109e-014 -1.98535e-006 -3.04766 47.2857 0 25.4109 -8.88178e-016 7.11278 -7.56221 -4.01058e-015 0 10 0 1.49089e-016 -3.97569e-016 -0 0 0 0 15.0933 -21.7379 36.0619 0 -1.42109e-014 10 -1.59028e-015 0 6.36111e-015 -8.88178e-016 33.7901 2.22045e-016 67.3151 -13.2275 -10.0441 0 19.8458 1.77636e-015 29.3719 22.2368 -8.07471 2.84217e-014 31.3007 0 -1.38203e-006 11.3845 21.4186 5.68434e-014 25.4109 0 -8.43603 -12.0477 -0 0 10 0 -7.45443e-016 3.97569e-016 3.18055e-015 0 0 0 -13.7831 -20.2443 -35.3345 2.84217e-014 1.42109e-014 10 1.59028e-015 0 6.36111e-015 
